<mxfile host="65bd71144e">
    <diagram id="pIaEtrtLPv3HG8r1JEND" name="Page-1">
        <mxGraphModel dx="1013" dy="572" grid="1" gridSize="10" guides="1" tooltips="1" connect="1" arrows="1" fold="1" page="1" pageScale="1" pageWidth="850" pageHeight="1100" math="0" shadow="0">
            <root>
                <mxCell id="0"/>
                <mxCell id="1" parent="0"/>
                <mxCell id="14" value="" style="rounded=0;whiteSpace=wrap;html=1;" parent="1" vertex="1">
                    <mxGeometry x="30" y="20" width="740" height="340" as="geometry"/>
                </mxCell>
                <mxCell id="7" value="" style="rounded=1;whiteSpace=wrap;html=1;strokeWidth=2;fillWeight=4;hachureGap=8;hachureAngle=45;fillColor=#1ba1e2;sketch=1;" parent="1" vertex="1">
                    <mxGeometry x="41" y="40" width="249" height="30" as="geometry"/>
                </mxCell>
                <mxCell id="9" value="" style="rounded=1;whiteSpace=wrap;html=1;strokeWidth=2;fillWeight=4;hachureGap=8;hachureAngle=45;fillColor=#1ba1e2;sketch=1;" parent="1" vertex="1">
                    <mxGeometry x="41" y="89" width="179" height="21" as="geometry"/>
                </mxCell>
                <mxCell id="11" value="Readonly input here..." style="html=1;shadow=0;dashed=0;shape=mxgraph.bootstrap.rrect;rSize=5;strokeColor=#CED4DA;strokeWidth=1;fillColor=#E9ECEF;fontColor=#505050;whiteSpace=wrap;align=left;verticalAlign=middle;spacingLeft=10;fontSize=14;" parent="1" vertex="1">
                    <mxGeometry x="41" y="154" width="159" height="20" as="geometry"/>
                </mxCell>
                <mxCell id="12" value="Button" style="labelPosition=center;verticalLabelPosition=middle;align=center;html=1;shape=mxgraph.basic.shaded_button;dx=10;fillColor=#E6E6E6;strokeColor=none;" parent="1" vertex="1">
                    <mxGeometry x="41" y="197" width="89" height="50" as="geometry"/>
                </mxCell>
            </root>
        </mxGraphModel>
    </diagram>
    <diagram id="Sxp5KlhwdoEGW6uvWSFR" name="Page-2">
        <mxGraphModel dx="760" dy="429" grid="1" gridSize="10" guides="1" tooltips="1" connect="1" arrows="1" fold="1" page="1" pageScale="1" pageWidth="827" pageHeight="1169" math="0" shadow="0">
            <root>
                <mxCell id="bWGWAFaowrcd7YRZCjhe-0"/>
                <mxCell id="bWGWAFaowrcd7YRZCjhe-1" parent="bWGWAFaowrcd7YRZCjhe-0"/>
                <mxCell id="bWGWAFaowrcd7YRZCjhe-2" value="" style="rounded=0;whiteSpace=wrap;html=1;" parent="bWGWAFaowrcd7YRZCjhe-1" vertex="1">
                    <mxGeometry x="30" y="20" width="740" height="340" as="geometry"/>
                </mxCell>
                <mxCell id="bWGWAFaowrcd7YRZCjhe-3" value="" style="rounded=1;whiteSpace=wrap;html=1;strokeWidth=2;fillWeight=4;hachureGap=8;hachureAngle=45;fillColor=#1ba1e2;sketch=1;" parent="bWGWAFaowrcd7YRZCjhe-1" vertex="1">
                    <mxGeometry x="41" y="40" width="249" height="30" as="geometry"/>
                </mxCell>
                <mxCell id="bWGWAFaowrcd7YRZCjhe-4" value="" style="rounded=1;whiteSpace=wrap;html=1;strokeWidth=2;fillWeight=4;hachureGap=8;hachureAngle=45;fillColor=#1ba1e2;sketch=1;" parent="bWGWAFaowrcd7YRZCjhe-1" vertex="1">
                    <mxGeometry x="41" y="89" width="179" height="21" as="geometry"/>
                </mxCell>
                <mxCell id="bWGWAFaowrcd7YRZCjhe-5" value="Readonly input here..." style="html=1;shadow=0;dashed=0;shape=mxgraph.bootstrap.rrect;rSize=5;strokeColor=#CED4DA;strokeWidth=1;fillColor=#E9ECEF;fontColor=#505050;whiteSpace=wrap;align=left;verticalAlign=middle;spacingLeft=10;fontSize=14;" parent="bWGWAFaowrcd7YRZCjhe-1" vertex="1">
                    <mxGeometry x="41" y="154" width="159" height="20" as="geometry"/>
                </mxCell>
                <mxCell id="bWGWAFaowrcd7YRZCjhe-6" value="Button" style="labelPosition=center;verticalLabelPosition=middle;align=center;html=1;shape=mxgraph.basic.shaded_button;dx=10;fillColor=#E6E6E6;strokeColor=none;" parent="bWGWAFaowrcd7YRZCjhe-1" vertex="1">
                    <mxGeometry x="41" y="197" width="89" height="50" as="geometry"/>
                </mxCell>
                <mxCell id="bWGWAFaowrcd7YRZCjhe-7" value="" style="rounded=1;whiteSpace=wrap;html=1;strokeWidth=2;fillWeight=4;hachureGap=8;hachureAngle=45;fillColor=#1ba1e2;sketch=1;" parent="bWGWAFaowrcd7YRZCjhe-1" vertex="1">
                    <mxGeometry x="42" y="270" width="179" height="21" as="geometry"/>
                </mxCell>
            </root>
        </mxGraphModel>
    </diagram>
</mxfile>